Coordinates
version=1
nRows=6
nColumns=38
inDegrees=yes

Units are S.I. units (second, meters, Newtons, ...)
Angles are in degrees.

endheader
time	pelvis_tilt	pelvis_list	pelvis_rotation	pelvis_tx	pelvis_ty	pelvis_tz	hip_flexion_r	hip_adduction_r	hip_rotation_r	knee_angle_r	ankle_angle_r	subtalar_angle_r	mtp_angle_r	hip_flexion_l	hip_adduction_l	hip_rotation_l	knee_angle_l	ankle_angle_l	subtalar_angle_l	mtp_angle_l	lumbar_extension	lumbar_bending	lumbar_rotation	arm_flex_r	arm_add_r	arm_rot_r	elbow_flex_r	pro_sup_r	wrist_flex_r	wrist_dev_r	arm_flex_l	arm_add_l	arm_rot_l	elbow_flex_l	pro_sup_l	wrist_flex_l	wrist_dev_l
      1.62000000	      3.14081637	      0.80927984	     -0.36465863	      0.38892370	      0.94084428	     -0.28603455	     23.97906781	     -5.22777841	    -10.30907073	    -34.06929085	      6.35276307	     -9.11866527	      0.00000000	     -5.43422288	      3.65512408	     -4.12211618	    -13.27908099	     13.74334474	     -8.48158795	      0.00000000	    -14.96284155	      1.91573954	     -7.15369045	     -1.99059503	     -6.23215105	     45.46620326	     23.05548412	     43.54719140	      0.00000000	      0.00000000	     18.70494569	     -8.39117854	     46.19943783	     29.48908560	     43.54719140	      0.00000000	      0.00000000
      1.63000000	      3.20824799	      0.86015034	     -0.16715972	      0.39861500	      0.93967062	     -0.28605375	     23.84898059	     -5.14983111	    -10.83758748	    -30.66171982	      6.46869626	     -7.91816927	      0.00000000	     -6.36815610	      3.68402254	     -3.97241389	    -12.90355889	     14.21567592	     -8.27168606	      0.00000000	    -15.07795177	      1.94254072	     -7.28710764	     -2.19430713	     -6.14735864	     45.47731400	     22.91208881	     43.56210289	      0.00000000	      0.00000000	     19.71624215	     -8.52390863	     46.17557485	     30.18193682	     43.56210289	      0.00000000	      0.00000000
      1.64000000	      2.99315232	      1.15556533	      0.00600444	      0.40824512	      0.93798526	     -0.28605167	     24.06222302	     -5.21189835	    -10.76777594	    -27.36952562	      6.51174525	     -6.95929411	      0.00000000	     -6.89062493	      3.96572653	     -3.84024063	    -12.76476292	     14.54949306	     -8.08079196	      0.00000000	    -14.84982584	      1.67757280	     -7.52847417	     -2.29355395	     -6.07099291	     45.48474525	     22.86722799	     43.56722446	      0.00000000	      0.00000000	     20.56620944	     -8.63632902	     46.10918004	     30.52643378	     43.56722446	      0.00000000	      0.00000000
      1.65000000	      3.27640871	      1.14843379	      0.22812983	      0.41828731	      0.93685756	     -0.28595515	     23.60595956	     -5.17580641	    -11.72468244	    -24.18020136	      6.81457840	     -4.86761395	      0.00000000	     -8.02303579	      3.88751362	     -3.87370313	    -12.52576178	     15.07954314	     -7.68091753	      0.00000000	    -15.19323198	      1.79350241	     -7.65345677	     -2.50552400	     -5.96655882	     45.45752873	     22.57689660	     43.59243304	      0.00000000	      0.00000000	     21.55510168	     -8.83645302	     46.16931701	     31.77604492	     43.59243304	      0.00000000	      0.00000000
      1.66000000	      3.25672873	      1.50776994	      0.29738824	      0.42838675	      0.93515180	     -0.28561337	     23.86956052	     -5.56467613	    -12.70014391	    -21.86912340	      7.18824831	     -2.32050499	      0.00000000	     -8.76408014	      4.22005180	     -3.79090104	    -12.44650397	     15.36604940	     -7.39260736	      0.00000000	    -15.14190776	      1.40472602	     -7.76781500	     -2.62817121	     -5.74853062	     45.44796044	     22.25622005	     43.64134637	      0.00000000	      0.00000000	     22.11296342	     -9.35807209	     46.08161750	     33.46839554	     43.64134637	      0.00000000	      0.00000000
      1.67000000	      3.10098336	      1.83269814	      0.36233418	      0.43846660	      0.93333691	     -0.28521340	     24.02320866	     -5.62757881	    -12.59328634	    -19.17530497	      7.24427365	     -1.54838758	      0.00000000	     -9.29674542	      4.50857540	     -3.81350930	    -12.41654127	     15.80967063	     -7.28833147	      0.00000000	    -14.92897718	      1.08416123	     -7.83600077	     -2.73703421	     -5.69518337	     45.46046137	     22.22304980	     43.64621507	      0.00000000	      0.00000000	     22.92010327	     -9.37465832	     45.96437723	     33.76907160	     43.64621507	      0.00000000	      0.00000000
